# xmcd
#
# Track frame offsets:
#	150
#	17848
#	40142
#	56264
#	63849
#	83175
#	97469
#	114227
#	125858
#	145767
#	163063
#	185655
#
# Disc length: 2870 seconds
# Revision: 0
# Processed by: cddbd v1.5.2PL0 Copyright (c) Steve Scherf et al.
# Submitted via: dBpowerAMP V12.0
#
DISCID=a70b340c
DTITLE=Randy Jones - When Old Lonesome Comes Around
DYEAR=2012
DGENRE=Country
TTITLE0=Appalachian Son
TTITLE1=Where Lovers Make Believe
TTITLE2=Second Hand Heart
TTITLE3=Big Sciota
TTITLE4=Wait a Minute
TTITLE5=Clinch Mountain Backstep
TTITLE6=I'm Learning How To Live Without You
TTITLE7=I Know What It Means To Be Lonesome
TTITLE8=M J
TTITLE9=It's a Lonesome Feeling
TTITLE10=Revelation Song
TTITLE11=West Virginia Blues
EXTD=
EXTT0=
EXTT1=
EXTT2=
EXTT3=
EXTT4=
EXTT5=
EXTT6=
EXTT7=
EXTT8=
EXTT9=
EXTT10=
EXTT11=
PLAYORDER=
